<svg width="213" height="27" viewBox="0 0 213 27" fill="none" xmlns="http://www.w3.org/2000/svg">
<path d="M0.44 0.799998H19.16V7.388H16.496V3.464H11.276V23.336H15.236V26H4.328V23.336H8.288V3.464H3.104V7.388H0.44V0.799998ZM37.0379 14.444H25.7339V26H22.7459V0.799998H25.7339V11.78H37.0379V0.799998H40.0259V26H37.0379V14.444ZM46.0239 0.799998H60.8199V3.464H49.0119V11.708H59.9199V14.372H49.0119V23.336H60.9999V26H46.0239V0.799998ZM80.2458 3.536C79.8378 3.368 79.3818 3.248 78.8778 3.176C78.3978 3.08 77.8098 3.032 77.1138 3.032C76.1298 3.032 75.1578 3.212 74.1978 3.572C73.2618 3.932 72.4218 4.52 71.6778 5.336C70.9578 6.152 70.3698 7.22 69.9138 8.54C69.4818 9.86 69.2658 11.48 69.2658 13.4C69.2658 15.128 69.4578 16.64 69.8418 17.936C70.2498 19.232 70.8018 20.312 71.4978 21.176C72.2178 22.04 73.0698 22.688 74.0538 23.12C75.0618 23.552 76.1778 23.768 77.4018 23.768C78.0258 23.768 78.6018 23.72 79.1298 23.624C79.6818 23.504 80.1858 23.348 80.6418 23.156V19.556H83.3058V24.416L83.3418 24.488C82.6218 25.04 81.7098 25.508 80.6058 25.892C79.5018 26.252 78.1578 26.432 76.5738 26.432C75.0618 26.432 73.6578 26.18 72.3618 25.676C71.0898 25.148 69.9858 24.356 69.0498 23.3C68.1138 22.244 67.3818 20.9 66.8538 19.268C66.3498 17.612 66.0978 15.656 66.0978 13.4C66.0978 11.048 66.3858 9.056 66.9618 7.424C67.5378 5.768 68.3178 4.424 69.3018 3.392C70.2858 2.336 71.4258 1.568 72.7218 1.088C74.0418 0.607999 75.4458 0.368 76.9338 0.368C77.7498 0.368 78.4578 0.403999 79.0578 0.475998C79.6578 0.523999 80.1858 0.607999 80.6418 0.727999C81.0978 0.823999 81.4938 0.955999 81.8298 1.124C82.1898 1.292 82.5378 1.484 82.8738 1.7H82.9098V7.388H80.2458V3.536ZM101.796 14.444H90.4918V26H87.5038V0.799998H90.4918V11.78H101.796V0.799998H104.784V26H101.796V14.444ZM109.09 0.799998H126.37V3.464H119.206V23.336H126.37V26H109.09V23.336H116.218V3.464H109.09V0.799998ZM147.308 6.56C147.308 7.16 147.212 7.772 147.02 8.396C146.828 9.02 146.54 9.608 146.156 10.16C145.772 10.688 145.28 11.156 144.68 11.564C144.08 11.972 143.372 12.284 142.556 12.5V12.644C143.276 12.764 143.96 12.968 144.608 13.256C145.28 13.544 145.868 13.94 146.372 14.444C146.876 14.948 147.284 15.56 147.596 16.28C147.908 17 148.064 17.852 148.064 18.836C148.064 20.132 147.788 21.26 147.236 22.22C146.708 23.156 146 23.924 145.112 24.524C144.248 25.124 143.252 25.568 142.124 25.856C140.996 26.144 139.844 26.288 138.668 26.288C138.26 26.288 137.78 26.288 137.228 26.288C136.676 26.288 136.1 26.264 135.5 26.216C134.9 26.192 134.3 26.144 133.7 26.072C133.1 26.024 132.572 25.94 132.116 25.82V1.016C133.004 0.871999 134.036 0.751998 135.212 0.655998C136.388 0.559999 137.672 0.512 139.064 0.512C140 0.512 140.948 0.595999 141.908 0.763999C142.892 0.907998 143.78 1.208 144.572 1.664C145.364 2.096 146.012 2.708 146.516 3.5C147.044 4.292 147.308 5.312 147.308 6.56ZM138.956 23.696C139.724 23.696 140.468 23.6 141.188 23.408C141.908 23.216 142.544 22.928 143.096 22.544C143.648 22.16 144.08 21.68 144.392 21.104C144.728 20.528 144.896 19.844 144.896 19.052C144.896 18.068 144.692 17.276 144.284 16.676C143.9 16.076 143.384 15.608 142.736 15.272C142.112 14.936 141.404 14.708 140.612 14.588C139.82 14.468 139.028 14.408 138.236 14.408H135.104V23.444C135.272 23.492 135.512 23.528 135.824 23.552C136.136 23.576 136.472 23.6 136.832 23.624C137.192 23.648 137.564 23.672 137.948 23.696C138.332 23.696 138.668 23.696 138.956 23.696ZM136.976 11.888C137.384 11.888 137.876 11.876 138.452 11.852C139.028 11.828 139.508 11.792 139.892 11.744C140.468 11.552 141.008 11.324 141.512 11.06C142.016 10.772 142.46 10.436 142.844 10.052C143.252 9.668 143.564 9.236 143.78 8.756C144.02 8.276 144.14 7.748 144.14 7.172C144.14 6.38 143.984 5.72 143.672 5.192C143.384 4.664 142.988 4.244 142.484 3.932C141.98 3.62 141.404 3.404 140.756 3.284C140.108 3.164 139.448 3.104 138.776 3.104C137.984 3.104 137.252 3.128 136.58 3.176C135.932 3.2 135.44 3.248 135.104 3.32V11.888H136.976ZM168.894 6.56C168.894 7.16 168.798 7.772 168.606 8.396C168.414 9.02 168.126 9.608 167.742 10.16C167.358 10.688 166.866 11.156 166.266 11.564C165.666 11.972 164.958 12.284 164.142 12.5V12.644C164.862 12.764 165.546 12.968 166.194 13.256C166.866 13.544 167.454 13.94 167.958 14.444C168.462 14.948 168.87 15.56 169.182 16.28C169.494 17 169.65 17.852 169.65 18.836C169.65 20.132 169.374 21.26 168.822 22.22C168.294 23.156 167.586 23.924 166.698 24.524C165.834 25.124 164.838 25.568 163.71 25.856C162.582 26.144 161.43 26.288 160.254 26.288C159.846 26.288 159.366 26.288 158.814 26.288C158.262 26.288 157.686 26.264 157.086 26.216C156.486 26.192 155.886 26.144 155.286 26.072C154.686 26.024 154.158 25.94 153.702 25.82V1.016C154.59 0.871999 155.622 0.751998 156.798 0.655998C157.974 0.559999 159.258 0.512 160.65 0.512C161.586 0.512 162.534 0.595999 163.494 0.763999C164.478 0.907998 165.366 1.208 166.158 1.664C166.95 2.096 167.598 2.708 168.102 3.5C168.63 4.292 168.894 5.312 168.894 6.56ZM160.542 23.696C161.31 23.696 162.054 23.6 162.774 23.408C163.494 23.216 164.13 22.928 164.682 22.544C165.234 22.16 165.666 21.68 165.978 21.104C166.314 20.528 166.482 19.844 166.482 19.052C166.482 18.068 166.278 17.276 165.87 16.676C165.486 16.076 164.97 15.608 164.322 15.272C163.698 14.936 162.99 14.708 162.198 14.588C161.406 14.468 160.614 14.408 159.822 14.408H156.69V23.444C156.858 23.492 157.098 23.528 157.41 23.552C157.722 23.576 158.058 23.6 158.418 23.624C158.778 23.648 159.15 23.672 159.534 23.696C159.918 23.696 160.254 23.696 160.542 23.696ZM158.562 11.888C158.97 11.888 159.462 11.876 160.038 11.852C160.614 11.828 161.094 11.792 161.478 11.744C162.054 11.552 162.594 11.324 163.098 11.06C163.602 10.772 164.046 10.436 164.43 10.052C164.838 9.668 165.15 9.236 165.366 8.756C165.606 8.276 165.726 7.748 165.726 7.172C165.726 6.38 165.57 5.72 165.258 5.192C164.97 4.664 164.574 4.244 164.07 3.932C163.566 3.62 162.99 3.404 162.342 3.284C161.694 3.164 161.034 3.104 160.362 3.104C159.57 3.104 158.838 3.128 158.166 3.176C157.518 3.2 157.026 3.248 156.69 3.32V11.888H158.562ZM173.848 0.799998H191.128V3.464H183.964V23.336H191.128V26H173.848V23.336H180.976V3.464H173.848V0.799998ZM198.673 22.436C199.393 22.82 200.197 23.144 201.085 23.408C201.997 23.648 202.909 23.768 203.821 23.768C204.613 23.768 205.357 23.696 206.053 23.552C206.749 23.384 207.349 23.132 207.853 22.796C208.381 22.436 208.789 21.992 209.077 21.464C209.389 20.936 209.545 20.312 209.545 19.592C209.545 18.608 209.209 17.804 208.537 17.18C207.889 16.556 207.073 16.004 206.089 15.524C205.105 15.044 204.037 14.576 202.885 14.12C201.733 13.664 200.665 13.124 199.681 12.5C198.697 11.876 197.869 11.12 197.197 10.232C196.549 9.32 196.225 8.168 196.225 6.776C196.225 5.792 196.417 4.904 196.801 4.112C197.209 3.32 197.773 2.648 198.493 2.096C199.213 1.544 200.077 1.124 201.085 0.835998C202.117 0.523999 203.257 0.368 204.505 0.368C205.945 0.368 207.253 0.476 208.429 0.692C209.605 0.883999 210.541 1.148 211.237 1.484L211.309 1.448V1.52H211.345L211.309 1.628V7.388H208.645V3.536C208.045 3.392 207.385 3.272 206.665 3.176C205.945 3.08 205.177 3.032 204.361 3.032C203.569 3.032 202.849 3.128 202.201 3.32C201.577 3.512 201.037 3.776 200.581 4.112C200.149 4.424 199.813 4.796 199.573 5.228C199.333 5.66 199.213 6.116 199.213 6.596C199.213 7.532 199.537 8.312 200.185 8.936C200.857 9.56 201.685 10.124 202.669 10.628C203.653 11.108 204.721 11.588 205.873 12.068C207.025 12.548 208.093 13.112 209.077 13.76C210.061 14.384 210.877 15.14 211.525 16.028C212.197 16.916 212.533 18.02 212.533 19.34C212.533 20.42 212.329 21.392 211.921 22.256C211.537 23.12 210.973 23.864 210.229 24.488C209.509 25.112 208.609 25.592 207.529 25.928C206.473 26.264 205.273 26.432 203.929 26.432C203.017 26.432 202.153 26.36 201.337 26.216C200.521 26.072 199.765 25.892 199.069 25.676C198.397 25.46 197.785 25.232 197.233 24.992C196.705 24.752 196.285 24.548 195.973 24.38L196.009 24.272V18.44H198.673V22.436Z" fill="#283231"/>
</svg>
